<svg width="30" height="30" viewBox="0 0 30 30" fill="none" xmlns="http://www.w3.org/2000/svg">
  <path d="M2.7315 1.32242C2.73377 1.32146 2.73583 1.32004 2.73754 1.31826C3.2093 0.82839 3.77966 0.458735 4.40557 0.237219C5.03263 0.015295 5.69901 -0.0521259 6.35423 0.0400581C7.00945 0.132242 7.63633 0.381617 8.1874 0.769295C8.73846 1.15697 9.19926 1.67278 9.53488 2.27766C11.9481 6.63814 12.93 11.7264 12.3267 16.7439C11.9159 20.1601 10.7861 23.4118 9.04391 26.268C7.71258 28.4507 4.71666 28.4548 2.94528 26.6112C1.29523 24.8939 1.36088 22.1978 2.38573 20.0481C3.04168 18.6721 3.47874 17.1792 3.66914 15.6292C4.03722 12.6327 3.46282 9.59105 2.03527 6.97729C1.54176 6.08754 1.34191 5.04825 1.4674 4.02416C1.59272 3.00137 2.03541 2.05217 2.7254 1.32664C2.72712 1.32483 2.7292 1.3234 2.7315 1.32242Z" fill="#9C5AFF"/>
  <path d="M2.53931 1.29047C1.71375 2.11645 1.25 3.23646 1.25 4.40427C1.25 5.57208 1.71375 6.69209 2.53931 7.51807L21.2319 26.2107C22.0579 27.0362 23.1779 27.5 24.3457 27.5C25.5135 27.5 26.6336 27.0362 27.4595 26.2107C27.8686 25.8019 28.1932 25.3165 28.4146 24.7822C28.636 24.2479 28.75 23.6752 28.75 23.0969C28.75 22.5185 28.636 21.9459 28.4146 21.4116C28.1932 20.8773 27.8686 20.3919 27.4595 19.9831L8.7669 1.29047C8.3581 0.881363 7.87269 0.556822 7.33841 0.335396C6.80413 0.11397 6.23145 1.90735e-06 5.6531 1.90735e-06C5.07476 1.90735e-06 4.50208 0.11397 3.9678 0.335396C3.43351 0.556822 2.9481 0.881363 2.53931 1.29047Z" fill="url(#paint0_linear_37_23)"/>
  <path d="M27.2685 1.32242C27.2662 1.32146 27.2642 1.32004 27.2625 1.31826C26.7907 0.82839 26.2203 0.458735 25.5944 0.237219C24.9674 0.015295 24.301 -0.0521259 23.6458 0.0400581C22.9905 0.132242 22.3637 0.381617 21.8126 0.769295C21.2615 1.15697 20.8007 1.67278 20.4651 2.27766C18.0519 6.63814 17.07 11.7264 17.6733 16.7439C18.0841 20.1601 19.2139 23.4118 20.9561 26.268C22.2874 28.4507 25.2833 28.4548 27.0547 26.6112C28.7048 24.8939 28.6391 22.1978 27.6143 20.0481C26.9583 18.6721 26.5213 17.1792 26.3309 15.6292C25.9628 12.6327 26.5372 9.59105 27.9647 6.97729C28.4582 6.08754 28.6581 5.04825 28.5326 4.02416C28.4073 3.00137 27.9646 2.05217 27.2746 1.32664C27.2729 1.32483 27.2708 1.3234 27.2685 1.32242Z" fill="url(#paint1_linear_37_23)"/>
  <defs>
    <linearGradient id="paint0_linear_37_23" x1="3.92087" y1="0.284162" x2="19.6185" y2="19.3675" gradientUnits="userSpaceOnUse">
      <stop stop-color="#22BFFF"/>
      <stop offset="0.15" stop-color="#22BFFF" stop-opacity="0.84"/>
      <stop offset="0.57" stop-color="#22BFFF" stop-opacity="0.39"/>
      <stop offset="0.87" stop-color="#22BFFF" stop-opacity="0.11"/>
      <stop offset="1" stop-color="#22BFFF" stop-opacity="0"/>
    </linearGradient>
    <linearGradient id="paint1_linear_37_23" x1="23.624" y1="29.6293" x2="23.8523" y2="0.19154" gradientUnits="userSpaceOnUse">
      <stop stop-color="#FFC99E"/>
      <stop offset="0.67" stop-color="#FF87A4"/>
      <stop offset="1" stop-color="#FF6BA6"/>
    </linearGradient>
  </defs>
</svg>